Coordinates
version=1
nRows=17
nColumns=38
inDegrees=no

Units are S.I. units (second, meters, Newtons, ...)
If the header above contains a line with 'inDegrees', this indicates whether rotational values are in degrees (yes) or radians (no).

endheader
time	pelvis_tilt	pelvis_list	pelvis_rotation	pelvis_tx	pelvis_ty	pelvis_tz	hip_flexion_r	hip_adduction_r	hip_rotation_r	knee_angle_r	ankle_angle_r	subtalar_angle_r	mtp_angle_r	hip_flexion_l	hip_adduction_l	hip_rotation_l	knee_angle_l	ankle_angle_l	subtalar_angle_l	mtp_angle_l	lumbar_extension	lumbar_bending	lumbar_rotation	arm_flex_r	arm_add_r	arm_rot_r	elbow_flex_r	pro_sup_r	wrist_flex_r	wrist_dev_r	arm_flex_l	arm_add_l	arm_rot_l	elbow_flex_l	pro_sup_l	wrist_flex_l	wrist_dev_l
2.43	-0.922917	1.46127	-0.531702	0.695476	-0.177174	0.934995	0.24795	0.0540109	-0.176217	0.463215	-0.228247	0	0	-0.262309	-0.200004	-0.179106	0.727469	-0.341862	0	0	-0.120311	0.161734	0.0128168	-0.22435	-0.271932	0.0378504	0.81962	1.5708	0	0	0.0841964	-0.237914	0.532865	0.681837	1.5708	0	0
2.44	-0.922252	1.45679	-0.537705	0.693392	-0.18777	0.935966	0.230322	0.0623739	-0.179128	0.457472	-0.223794	0	0	-0.241048	-0.209932	-0.171262	0.785222	-0.360258	0	0	-0.121736	0.164802	0.0212932	-0.229267	-0.275587	0.0395137	0.831334	1.5708	0	0	0.075921	-0.241651	0.540723	0.679939	1.5708	0	0
2.45	-0.925394	1.45315	-0.539156	0.691511	-0.198091	0.936734	0.213728	0.0698471	-0.182339	0.452388	-0.218261	0	0	-0.216549	-0.219443	-0.164078	0.845448	-0.374899	0	0	-0.122843	0.167624	0.0292907	-0.234028	-0.279976	0.0410158	0.84446	1.5708	0	0	0.068301	-0.245465	0.548867	0.679202	1.5708	0	0
2.46	-0.931877	1.45014	-0.53667	0.689802	-0.208081	0.937352	0.19844	0.0769001	-0.184529	0.447925	-0.211762	0	0	-0.189503	-0.228908	-0.157843	0.907729	-0.384862	0	0	-0.123836	0.170358	0.0369354	-0.238161	-0.284343	0.0405652	0.858351	1.5708	0	0	0.0618551	-0.249473	0.558164	0.679301	1.5708	0	0
2.47	-0.93983	1.4474	-0.532099	0.688239	-0.217743	0.93795	0.183935	0.0837379	-0.185684	0.443215	-0.20508	0	0	-0.160702	-0.238688	-0.15253	0.971448	-0.391283	0	0	-0.125172	0.173146	0.0449446	-0.24148	-0.288592	0.038783	0.871705	1.5708	0	0	0.0571855	-0.25329	0.568848	0.679467	1.57049	0	0
2.48	-0.946902	1.44495	-0.527564	0.686771	-0.227132	0.938657	0.169554	0.0899923	-0.187597	0.437354	-0.199862	0	0	-0.130801	-0.248346	-0.147261	1.03475	-0.396639	0	0	-0.126603	0.175587	0.0526163	-0.243062	-0.292397	0.0368146	0.882654	1.5708	0	0	0.0536936	-0.256832	0.579341	0.679252	1.56957	0	0
2.49	-0.94482	1.44262	-0.531356	0.685327	-0.23631	0.939586	0.153618	0.0954731	-0.189846	0.429505	-0.196258	0	0	-0.101373	-0.257323	-0.14255	1.09537	-0.403017	0	0	-0.128878	0.176928	0.0597346	-0.242438	-0.2956	0.035461	0.890473	1.5708	0	0	0.051145	-0.260361	0.589496	0.678734	1.5677	0	0
2.5	-0.921465	1.43947	-0.555311	0.683944	-0.245389	0.940827	0.132877	0.100634	-0.189612	0.417922	-0.193474	0	0	-0.0750767	-0.264965	-0.137837	1.15165	-0.406391	0	0	-0.133839	0.177227	0.0661619	-0.240112	-0.298354	0.0344434	0.896254	1.5708	0	0	0.0493755	-0.264261	0.599196	0.678905	1.56461	0	0
2.51	-0.883496	1.43578	-0.592801	0.682654	-0.254409	0.942274	0.108201	0.105243	-0.188348	0.402713	-0.191526	0	0	-0.0515163	-0.270767	-0.132736	1.20247	-0.399938	0	0	-0.140582	0.176565	0.0716242	-0.236456	-0.301143	0.0342969	0.900517	1.5708	0	0	0.0478829	-0.268783	0.608345	0.68022	1.56101	0	0
2.52	-0.840081	1.43187	-0.634874	0.681487	-0.263411	0.943789	0.0812008	0.109363	-0.187606	0.384237	-0.190963	0	0	-0.0297264	-0.274838	-0.127046	1.2473	-0.381888	0	0	-0.147804	0.175156	0.0760304	-0.231915	-0.304026	0.0348163	0.903584	1.5708	0	0	0.0457977	-0.273935	0.616327	0.683407	1.55598	0	0
2.53	-0.80015	1.42871	-0.673288	0.680392	-0.272436	0.945273	0.0546706	0.112733	-0.187966	0.365162	-0.191674	0	0	-0.00810833	-0.27666	-0.120335	1.28606	-0.358275	0	0	-0.1535	0.172743	0.0794771	-0.226326	-0.30704	0.0366847	0.904642	1.5708	0	0	0.0423679	-0.279159	0.621187	0.687908	1.55029	0	0
2.54	-0.760508	1.42662	-0.713483	0.679126	-0.281252	0.946697	0.0297386	0.115033	-0.186096	0.347448	-0.192639	0	0	0.0131818	-0.275779	-0.114843	1.31993	-0.333412	0	0	-0.159055	0.168829	0.0841655	-0.219521	-0.310671	0.0400307	0.905195	1.5708	0	0	0.0382779	-0.284866	0.623672	0.694072	1.5451	0	0
2.55	-0.714704	1.42584	-0.764653	0.677414	-0.28956	0.948041	0.00794746	0.115099	-0.178612	0.335253	-0.192338	0	0	0.0331683	-0.272027	-0.114078	1.34864	-0.312409	0	0	-0.166249	0.16219	0.0934351	-0.2115	-0.314775	0.0434405	0.90642	1.5708	0	0	0.0345674	-0.290778	0.623453	0.70224	1.54067	0	0
2.56	-0.676312	1.42615	-0.808221	0.675822	-0.297979	0.949226	-0.0119612	0.114312	-0.173523	0.323104	-0.191859	0	0	0.0540087	-0.267874	-0.113921	1.37205	-0.292715	0	0	-0.17116	0.155354	0.101451	-0.203431	-0.318497	0.0462773	0.907169	1.5708	0	0	0.0294751	-0.296643	0.621301	0.711002	1.53587	0	0
2.57	-0.646786	1.4283	-0.841089	0.674548	-0.306507	0.950198	-0.0289487	0.112339	-0.172987	0.311599	-0.191806	0	0	0.0774231	-0.262275	-0.111862	1.39015	-0.275533	0	0	-0.172619	0.148437	0.106407	-0.194989	-0.321628	0.0486568	0.906649	1.5708	0	0	0.0232089	-0.302043	0.617586	0.719169	1.53065	0	0
2.58	-0.623836	1.43242	-0.866103	0.673501	-0.315046	0.95098	-0.0429506	0.109272	-0.175073	0.300921	-0.191952	0	0	0.103089	-0.255216	-0.108714	1.40297	-0.25971	0	0	-0.171184	0.141102	0.10865	-0.185372	-0.324443	0.0518174	0.904593	1.5708	0	0	0.015524	-0.306939	0.610798	0.727424	1.52488	0	0
2.59	-0.593281	1.43659	-0.899936	0.672369	-0.323477	0.95177	-0.0561153	0.10508	-0.176359	0.29337	-0.191367	0	0	0.12675	-0.247454	-0.10806	1.40951	-0.248524	0	0	-0.170603	0.13286	0.112598	-0.176296	-0.326514	0.05296	0.903372	1.5708	0	0	0.00862164	-0.310811	0.602591	0.734772	1.52067	0	0
